inDegrees=yes
name=ik_S49_A06_T02
DataType=double
version=3
OpenSimVersion=4.3-2021-08-27-4bc7ad9
endheader
time	pelvis_tilt	pelvis_list	pelvis_rotation	pelvis_tx	pelvis_ty	pelvis_tz	hip_flexion_r	hip_adduction_r	hip_rotation_r	knee_angle_r	knee_angle_r_beta	ankle_angle_r	subtalar_angle_r	mtp_angle_r	hip_flexion_l	hip_adduction_l	hip_rotation_l	knee_angle_l	knee_angle_l_beta	ankle_angle_l	subtalar_angle_l	mtp_angle_l	lumbar_extension	lumbar_bending	lumbar_rotation	arm_flex_r	arm_add_r	arm_rot_r	elbow_flex_r	pro_sup_r	wrist_flex_r	wrist_dev_r	arm_flex_l	arm_add_l	arm_rot_l	elbow_flex_l	pro_sup_l	wrist_flex_l	wrist_dev_l
0	0	0	0	0	0.9399999999999999	0	0	0	0	0	0	0	0	0	0	0	0	0	0	0	0	0	0	0	0	0	0	0	0	89.99999999963507	0	0	0	0	0	0	89.99999999869995	0	0
0.02	-7.063890067419689	-2.132167004295283	21.18090500114547	0	0.9399999999999999	0	3.476598096728027	-1.607365024758598	-1.168053107742808	5.3619627534284	0.09358390441662645	0	0	0	3.476598096728027	-1.607365024758598	-1.168053107742808	5.3619627534284	0.09358390441662645	0	0	0	-6.039046336422103	-1.602814059137479	4.088027188280207	34.29571979958841	-1.379328705701427	2.776032553393472	39.97460892262986	117.5354035520041	0	0	44.29660259746705	-9.216389814457791	17.3224952461932	15.53785958280792	118.4085922358814	0	0
0.04	-7.069019745678506	-2.131117483511076	21.19091820859216	0	0.9399999999999999	0	3.688099886486746	-1.712334549213836	-1.242715528998988	5.605047976458309	0.09782654192144311	0	0	0	3.688099886486746	-1.712334549213836	-1.242715528998988	5.605047976458309	0.09782654192144311	0	0	0	-6.047458731195317	-1.59337319448578	4.076796830969644	34.29097993785258	-1.39448235692413	2.770131416765513	40.04550237831121	117.483384656178	0	0	44.25323658208398	-9.271283875625302	17.29802970172945	15.65826311524711	118.3979015745901	0	0
0.06	-7.073384910949074	-2.125134226250096	21.19492313363584	0	0.9399999999999999	0	3.875247227235092	-1.80725604587515	-1.30907314156617	5.825487238158029	0.1016739328387687	0	0	0	3.875247227235092	-1.80725604587515	-1.30907314156617	5.825487238158029	0.1016739328387687	0	0	0	-6.052815364419153	-1.58067904707946	4.067872346935558	34.26582670297109	-1.392553458731409	2.707950735149714	40.09666272113299	117.5429867448198	0	0	44.19227083040612	-9.341978354808727	17.26030324601744	15.74082426376668	118.3923513907932	0	0
0.08	-6.861665430750262	-2.321474201493356	22.13317573288667	0	0.9399999999999999	0	42.34352441009156	-12.06850752170345	-11.23122487639603	53.32909674801587	0.9307683253674777	0	0	0	42.34352441009156	-12.06850752170345	-11.23122487639603	53.32909674801587	0.9307683253674777	0	0	0	-6.215728703384547	-1.210679299445238	3.162913061080544	34.26058184692339	-1.3960439850124	2.719518405467085	40.0979886143399	117.5927958797868	0	0	44.18599252996465	-9.403254970805003	17.23998273802053	15.7603035827838	118.3417817205055	0	0
0.1	-6.859576568718082	-2.318059348198091	22.14852637984238	0	0.9399999999999999	0	42.34921644582558	-12.05768882189309	-11.22632674502373	53.33161870683427	0.9308123418524584	0	0	0	42.34921644582558	-12.05768882189309	-11.22632674502373	53.33161870683427	0.9308123418524584	0	0	0	-6.214165839245251	-1.205502604510492	3.157400839953183	34.24931041064966	-1.424159025125114	2.741249000969599	40.1478760556266	117.5358313008849	0	0	44.16083334650504	-9.435347543747017	17.2092389414644	15.81573032480396	118.3320157270794	0	0
0.12	-6.861789313729446	-2.317795338919214	22.15817479049471	0	0.9399999999999999	0	42.35891496428148	-12.0383947055673	-11.21775612276278	53.33588506988427	0.9308868039347664	0	0	0	42.35891496428148	-12.0383947055673	-11.21775612276278	53.33588506988427	0.9308868039347664	0	0	0	-6.218995821832263	-1.199162624721422	3.144559474249782	34.24660201400147	-1.466387348690059	2.746015351824256	40.21586443268742	117.4812490898655	0	0	44.14206206125622	-9.478189837086713	17.17993751296267	15.92415941395208	118.2919807040856	0	0
0.14	-6.863202985339742	-2.321669633662439	22.15190923417695	0	0.9399999999999999	0	42.3602038164023	-12.03796731892812	-11.21708760981405	53.3365157035838	0.9308978105691972	0	0	0	42.3602038164023	-12.03796731892812	-11.21708760981405	53.3365157035838	0.9308978105691972	0	0	0	-6.222204387359672	-1.201492164413125	3.142965280154974	34.24449867408765	-1.492010890206159	2.749977347050277	40.20784711650056	117.4837048549272	0	0	44.15296016763529	-9.473565882187538	17.17728846075874	15.84835413969424	118.298081236546	0	0
0.16	-6.869612583130964	-2.327212511122995	22.15780036676662	0	0.9399999999999999	0	42.36407661984411	-12.03053976203015	-11.21375429966939	53.33823546736914	0.9309278261096079	0	0	0	42.36407661984411	-12.03053976203015	-11.21375429966939	53.33823546736914	0.9309278261096079	0	0	0	-6.231422107691453	-1.202063436169301	3.13702940576321	34.25676864500035	-1.510364684491392	2.762496674674736	40.23964982902766	117.459318337819	0	2.423052609267352e-36	44.14869406829495	-9.506606476437545	17.16459361965309	15.87634972695168	118.2822834047677	0	2.423052609267352e-36
0.18	-6.870023567985181	-2.329607684050063	22.15265051886797	0	0.9399999999999999	0	42.36713721002086	-12.02458269216445	-11.2110919945435	53.3395886788269	0.9309514441050216	0	0	0	42.36713721002086	-12.02458269216445	-11.2110919945435	53.3395886788269	0.9309514441050216	0	0	0	-6.23359583142524	-1.202783272919733	3.134487789042529	34.26066676481178	-1.532828927940619	2.768500244644737	40.26134764257693	117.4369571140947	0	-2.049462414442117e-51	44.15159628605265	-9.518287544975372	17.1566185136509	15.89428740482925	118.2676305074373	0	-2.049462414442117e-51
0.2	-6.875005466037629	-2.34097543861041	22.18986050953649	0	0.9399999999999999	0	42.36729799365505	-12.02416314827391	-11.21092966247839	53.33965847061022	0.9309526622014315	0	0	0	42.36729799365505	-12.02416314827391	-11.21092966247839	53.33965847061022	0.9309526622014315	0	0	0	-6.242641147340983	-1.210975331097659	3.130931728422187	34.26573455137724	-1.59241813189848	2.722723740089592	40.26632602685549	117.427710799023	0	0	44.17373732947804	-9.60278897744422	17.0772393545197	15.90638844596081	118.2821925693344	0	0
0.22	-6.877109100464241	-2.343350917487947	22.1981856005738	0	0.9399999999999999	0	42.37324525607571	-12.01225376967682	-11.20568382711732	53.3422779610494	0.9309983809343196	0	0	0	42.37324525607571	-12.01225376967682	-11.20568382711732	53.3422779610494	0.9309983809343196	0	0	0	-6.24758013532043	-1.208209291002931	3.115413295700569	34.27667027876257	-1.590558230655205	2.736673008744162	40.31877984956977	117.3887478604925	0	0	44.14987277574264	-9.651953870292923	17.01858104147548	15.99829276631261	118.2544220360106	0	0
0.24	-6.879067105477086	-2.350535434945789	22.2101189947413	0	0.9399999999999999	0	42.37842556063122	-12.00213423821523	-11.20116750148383	53.34456677321469	0.9310383282425636	0	0	0	42.37842556063122	-12.00213423821523	-11.20116750148383	53.34456677321469	0.9310383282425636	0	0	0	-6.253772779987327	-1.210761119097408	3.103953257885875	34.28772865048322	-1.619456158638818	2.730937007186424	40.3539665440572	117.3532180893771	0	-1.521775532429215e-36	44.1363375949115	-9.700176453020019	16.96836990155508	16.06868330268458	118.2376839390186	0	-1.521775532429215e-36
0.26	-6.878298430559657	-2.359823220436611	22.22184659109107	0	0.9399999999999999	0	42.38263400295084	-11.99467420546955	-11.1976800661787	53.34645359236414	0.9310712594491112	0	0	0	42.38263400295084	-11.99467420546955	-11.1976800661787	53.34645359236414	0.9310712594491112	0	0	0	-6.257970934063112	-1.216913790033651	3.093983127473078	34.2741387275152	-1.646706276433589	2.730411519836692	40.36959923897721	117.3305935129278	0	0	44.12424071647548	-9.759987653097399	16.92391255526947	16.09537265567648	118.2560458785479	0	0
0.28	-6.882474406522404	-2.36958437054946	22.23702512951506	0	0.9399999999999999	0	42.38812894523658	-11.98383648386714	-11.19288537377362	53.34888387916441	0.9311136759555436	0	0	0	42.38812894523658	-11.98383648386714	-11.19288537377362	53.34888387916441	0.9311136759555436	0	0	0	-6.267188189144755	-1.221369014006283	3.08580978477357	34.27422668331095	-1.655752485867402	2.744390012383779	40.39945119104262	117.2966106731902	0	0	44.11603359825767	-9.813224833961572	16.86902144404973	16.17293547622338	118.2601959029077	0	0
